<svg width="1150" height="861" viewBox="0 0 1150 861" fill="none" xmlns="http://www.w3.org/2000/svg">
<path d="M395 2H410V126L432 161L440 154.5L448 146L455 137.5L460 130V2H476V130L473.5 137.5L467 146L460 155L451.5 163.5L443 171.5L440 173.5L489 252L507.5 232.5L534.5 202.069V2H550.5V190.5L700 380.5L743.5 400.5L779.5 416.5L783 418.5L786 421L788 424L789.5 427L790.5 430V443L789.5 446.5L788 449.5L786 452L783 456L782 457H802.5H850.5H860V472" stroke="white" stroke-width="4" stroke-linecap="round" stroke-linejoin="round"/>
<path d="M860 472H674.5H565H499.5H446H371.5H290.5V457H344H578L568 449.5L553 437.5L539 424.5L523.5 409.5L507 393L493 380L486.5 374L479.5 368L472 362.5L466 358L460.5 354.5L452.5 349.5L442.5 344.5L434 341L425.5 337.5L415 333L404.5 329.5L390.5 323.5L382.5 320L376 317L367 311.5L359.5 305.5L353 299L348 293L342 284L338 276L336.5 267L335.5 262.5V244.5L336.5 239.5L338 234.5L341 226.5L347.5 216L352 208C355 203.833 361.1 195.4 361.5 195C362 194.5 367.5 187 368 186.5C368.4 186.1 371.167 181.333 372.5 179L380.5 165L387 149.5C388.5 145.5 390.667 138.5 391 137.5C391.5 136 392.5 131.5 393 129C394 125.5 395 120.5 395 119.5C395 118.606 395 114.167 395 112V2" stroke="white" stroke-width="4" stroke-linecap="round" stroke-linejoin="round"/>
<path d="M693.5 397L688.5 395L676.5 408.5L658.5 428.5L641 448L631 458H756.5L762 457L765 455L768 452.5L772 448.5L774.5 445.5L776 443L776.5 441V433L776 431L774.5 430L772.5 429L767 427L761 424.5L746.5 418.5L729.5 411.5L718 407L705.5 402L698 399L693.5 397Z" stroke="white" stroke-width="4" stroke-linecap="round" stroke-linejoin="round"/>
<path d="M675 389V387.5L505.5 281.5L542 335.5L549 346.5L563 369L584.5 403.5L588 409L607 440.5L615.5 453L635.5 430.5L660 404.5L675 389Z" stroke="white" stroke-width="4" stroke-linecap="round" stroke-linejoin="round"/>
<path d="M500 264.5L680.5 375L547.5 213L517 246L500 264.5Z" stroke="white" stroke-width="4" stroke-linecap="round" stroke-linejoin="round"/>
<path d="M393.5 174L390 181L393 180L398 178L411 173.5L419.5 169.5L419 168.5L417 165.5L415 162.5L413 159L410 154.5L407.5 150L404.5 145L403.5 148.5L401.5 155.5L397.5 165.5L393.5 174Z" stroke="white" stroke-width="4" stroke-linecap="round" stroke-linejoin="round"/>
<path d="M452.296 330.04L477 269L478.5 265V263L477 260L467.5 245.5L450.5 219.138L427 181H425.35L423.354 181.502L419.362 183.007L384.433 195.553L378.944 198.062L375.451 201.575C375.052 201.976 370.627 207.764 368.465 210.607L362.477 219.138L356.988 229.175L354.493 235.698L352.497 240.716L351 246.738V253.764V262.295L351.998 266.811C352.497 268.149 353.495 270.926 353.495 271.327C353.495 271.729 354.826 275.509 355.491 277.349L359.483 284.375L362.976 288.389L367.966 293.909L373.5 299.429L378.445 302.44L384.932 305.953L390.92 308.462L404.891 313.982L428.344 323.015L444.312 330.04L450.799 333.553L452.296 330.04Z" stroke="white" stroke-width="4" stroke-linejoin="round"/>
<path d="M546.107 370.185L503 299.429L489 278L464.272 337.567L463.773 340.076L468.264 343.589L478.742 350.113L492.215 360.149L506.686 374.2L525.149 392.265L543.612 410.833L558.082 423.88L573.551 436.425L585.527 445.458L599 457L594.509 448.971L546.107 370.185Z" stroke="white" stroke-width="4" stroke-linejoin="round"/>
<path d="M93.297 537.628C99.653 537.628 105.252 537.931 110.095 538.536C115.089 539.141 119.705 540.125 123.942 541.487C128.179 542.698 132.492 544.438 136.881 546.708C137.94 547.313 138.546 547.843 138.697 548.297C139 548.6 139.227 549.735 139.378 551.702L142.102 578.715C142.102 579.018 141.724 579.32 140.967 579.623C140.21 579.774 139.681 579.547 139.378 578.942C135.897 566.381 130.298 556.923 122.58 550.567C115.013 544.211 105.025 541.033 92.616 541.033C79.7527 541.033 68.4783 543.833 58.793 549.432C49.259 555.031 41.768 562.976 36.32 573.267C31.0233 583.558 28.375 595.664 28.375 609.587C28.375 619.575 30.0397 628.958 33.369 637.735C36.8497 646.361 41.6167 654.003 47.67 660.662C53.7233 667.169 60.609 672.239 68.327 675.871C76.1963 679.503 84.5197 681.319 93.297 681.319C105.858 681.319 115.997 678.292 123.715 672.239C131.433 666.034 137.259 656.803 141.194 644.545C141.345 644.091 141.799 643.94 142.556 644.091C143.464 644.242 143.918 644.469 143.918 644.772L141.648 669.742C141.497 671.558 141.27 672.693 140.967 673.147C140.664 673.601 140.059 674.131 139.151 674.736C131.282 678.671 123.866 681.319 116.905 682.681C109.944 684.194 102.074 684.951 93.297 684.951C77.2557 684.951 63.0303 681.849 50.621 675.644C38.363 669.288 28.6777 660.511 21.565 649.312C14.6037 637.962 11.123 624.872 11.123 610.041C11.123 599.145 13.166 589.308 17.252 580.531C21.338 571.602 27.0887 563.96 34.504 557.604C41.9193 551.248 50.621 546.33 60.609 542.849C70.597 539.368 81.493 537.628 93.297 537.628ZM319.286 558.966C319.286 554.577 318.832 551.248 317.924 548.978C317.016 546.708 315.124 545.119 312.249 544.211C309.525 543.303 305.212 542.849 299.31 542.849C298.856 542.849 298.629 542.395 298.629 541.487C298.629 540.579 298.856 540.125 299.31 540.125C302.942 540.125 307.028 540.276 311.568 540.579C316.108 540.73 321.178 540.806 326.777 540.806C331.771 540.806 336.614 540.73 341.305 540.579C345.996 540.276 350.082 540.125 353.563 540.125C354.017 540.125 354.244 540.579 354.244 541.487C354.244 542.395 354.017 542.849 353.563 542.849C347.964 542.849 343.726 543.303 340.851 544.211C337.976 544.968 336.084 546.481 335.176 548.751C334.268 550.87 333.814 554.123 333.814 558.512V663.613C333.814 668.002 334.268 671.331 335.176 673.601C336.084 675.871 337.976 677.384 340.851 678.141C343.726 678.898 347.964 679.276 353.563 679.276C354.017 679.276 354.244 679.73 354.244 680.638C354.244 681.546 354.017 682 353.563 682C350.082 682 345.996 681.924 341.305 681.773C336.614 681.622 331.771 681.546 326.777 681.546C321.178 681.546 316.108 681.622 311.568 681.773C307.028 681.924 302.942 682 299.31 682C298.856 682 298.629 681.546 298.629 680.638C298.629 679.73 298.856 679.276 299.31 679.276C305.212 679.276 309.525 678.898 312.249 678.141C315.124 677.384 317.016 675.871 317.924 673.601C318.832 671.331 319.286 668.002 319.286 663.613V558.966ZM224.173 610.495V605.728H325.642V610.495H224.173ZM217.59 663.613V558.512C217.59 554.123 217.06 550.87 216.001 548.751C215.093 546.481 213.201 544.968 210.326 544.211C207.602 543.303 203.44 542.849 197.841 542.849C197.538 542.849 197.387 542.395 197.387 541.487C197.387 540.579 197.538 540.125 197.841 540.125C201.473 540.125 205.559 540.276 210.099 540.579C214.79 540.73 219.633 540.806 224.627 540.806C230.226 540.806 235.296 540.73 239.836 540.579C244.376 540.276 248.462 540.125 252.094 540.125C252.397 540.125 252.548 540.579 252.548 541.487C252.548 542.395 252.397 542.849 252.094 542.849C246.495 542.849 242.257 543.303 239.382 544.211C236.507 545.119 234.539 546.708 233.48 548.978C232.572 551.248 232.118 554.577 232.118 558.966V663.613C232.118 668.002 232.572 671.331 233.48 673.601C234.388 675.871 236.28 677.384 239.155 678.141C242.182 678.898 246.495 679.276 252.094 679.276C252.397 679.276 252.548 679.73 252.548 680.638C252.548 681.546 252.397 682 252.094 682C248.311 682 244.149 681.924 239.609 681.773C235.22 681.622 230.226 681.546 224.627 681.546C219.633 681.546 214.79 681.622 210.099 681.773C205.408 681.924 201.246 682 197.614 682C197.311 682 197.16 681.546 197.16 680.638C197.16 679.73 197.311 679.276 197.614 679.276C203.213 679.276 207.451 678.898 210.326 678.141C213.201 677.384 215.093 675.871 216.001 673.601C217.06 671.331 217.59 668.002 217.59 663.613ZM441.137 663.613C441.137 668.002 441.591 671.331 442.499 673.601C443.407 675.871 445.223 677.384 447.947 678.141C450.823 678.898 454.984 679.276 460.432 679.276C460.886 679.276 461.113 679.73 461.113 680.638C461.113 681.546 460.886 682 460.432 682C456.8 682 452.714 681.924 448.174 681.773C443.786 681.622 438.867 681.546 433.419 681.546C428.425 681.546 423.583 681.622 418.891 681.773C414.351 681.924 410.265 682 406.633 682C406.179 682 405.952 681.546 405.952 680.638C405.952 679.73 406.179 679.276 406.633 679.276C412.081 679.276 416.243 678.898 419.118 678.141C421.994 677.384 423.885 675.871 424.793 673.601C425.701 671.331 426.155 668.002 426.155 663.613V558.512C426.155 554.123 425.701 550.87 424.793 548.751C423.885 546.481 421.994 544.968 419.118 544.211C416.243 543.303 412.081 542.849 406.633 542.849C406.179 542.849 405.952 542.395 405.952 541.487C405.952 540.579 406.179 540.125 406.633 540.125C410.265 540.125 414.351 540.276 418.891 540.579C423.583 540.73 428.425 540.806 433.419 540.806C438.867 540.806 443.861 540.73 448.401 540.579C452.941 540.276 456.952 540.125 460.432 540.125C460.886 540.125 461.113 540.579 461.113 541.487C461.113 542.395 460.886 542.849 460.432 542.849C454.984 542.849 450.823 543.303 447.947 544.211C445.223 545.119 443.407 546.708 442.499 548.978C441.591 551.248 441.137 554.577 441.137 558.966V663.613ZM631.143 682C628.571 682 624.409 679.125 618.658 673.374C613.059 667.472 606.173 659.073 598.001 648.177C589.981 637.13 580.976 624.115 570.988 609.133L583.7 605.274C596.564 623.585 607.46 638.189 616.388 649.085C625.468 659.83 633.413 667.548 640.223 672.239C647.185 676.93 653.843 679.276 660.199 679.276C660.653 679.276 660.88 679.73 660.88 680.638C660.88 681.546 660.653 682 660.199 682C652.633 682 646.428 682 641.585 682C636.894 682 633.413 682 631.143 682ZM573.939 539.444C586.046 539.444 595.277 542.244 601.633 547.843C608.141 553.291 611.394 560.479 611.394 569.408C611.394 577.58 608.973 584.995 604.13 591.654C599.439 598.161 593.159 603.307 585.289 607.09C577.571 610.873 569.097 612.765 559.865 612.765C558.352 612.765 556.612 612.689 554.644 612.538C552.828 612.387 551.164 612.235 549.65 612.084V663.613C549.65 668.002 550.029 671.331 550.785 673.601C551.693 675.871 553.509 677.384 556.233 678.141C559.109 678.898 563.346 679.276 568.945 679.276C569.399 679.276 569.626 679.73 569.626 680.638C569.626 681.546 569.399 682 568.945 682C565.313 682 561.227 681.924 556.687 681.773C552.299 681.622 547.456 681.546 542.159 681.546C537.165 681.546 532.323 681.622 527.631 681.773C523.091 681.924 518.93 682 515.146 682C514.844 682 514.692 681.546 514.692 680.638C514.692 679.73 514.844 679.276 515.146 679.276C520.746 679.276 524.907 678.898 527.631 678.141C530.507 677.384 532.474 675.871 533.533 673.601C534.593 671.331 535.122 668.002 535.122 663.613V558.512C535.122 554.123 534.593 550.87 533.533 548.751C532.625 546.481 530.809 544.968 528.085 544.211C525.361 543.303 521.2 542.849 515.6 542.849C515.146 542.849 514.919 542.395 514.919 541.487C514.919 540.579 515.146 540.125 515.6 540.125C519.232 540.125 523.318 540.276 527.858 540.579C532.398 540.73 537.165 540.806 542.159 540.806C546.851 540.806 552.223 540.579 558.276 540.125C564.481 539.671 569.702 539.444 573.939 539.444ZM595.958 575.991C595.958 567.668 594.672 561.085 592.099 556.242C589.678 551.399 586.197 547.994 581.657 546.027C577.117 543.908 571.669 542.849 565.313 542.849C559.714 542.849 555.704 543.833 553.282 545.8C550.861 547.767 549.65 552.156 549.65 558.966V606.636C551.769 606.939 554.039 607.166 556.46 607.317C558.882 607.468 561.076 607.544 563.043 607.544C575.301 607.544 583.852 604.896 588.694 599.599C593.537 594.151 595.958 586.282 595.958 575.991ZM737.346 663.613C737.346 668.002 737.8 671.331 738.708 673.601C739.616 675.871 741.432 677.384 744.156 678.141C747.031 678.898 751.193 679.276 756.641 679.276C757.095 679.276 757.322 679.73 757.322 680.638C757.322 681.546 757.095 682 756.641 682C753.009 682 748.923 681.924 744.383 681.773C739.994 681.622 735.076 681.546 729.628 681.546C724.634 681.546 719.791 681.622 715.1 681.773C710.56 681.924 706.474 682 702.842 682C702.388 682 702.161 681.546 702.161 680.638C702.161 679.73 702.388 679.276 702.842 679.276C708.29 679.276 712.451 678.898 715.327 678.141C718.202 677.384 720.094 675.871 721.002 673.601C721.91 671.331 722.364 668.002 722.364 663.613V558.512C722.364 554.123 721.91 550.87 721.002 548.751C720.094 546.481 718.202 544.968 715.327 544.211C712.451 543.303 708.29 542.849 702.842 542.849C702.388 542.849 702.161 542.395 702.161 541.487C702.161 540.579 702.388 540.125 702.842 540.125C706.474 540.125 710.56 540.276 715.1 540.579C719.791 540.73 724.634 540.806 729.628 540.806C735.076 540.806 740.07 540.73 744.61 540.579C749.15 540.276 753.16 540.125 756.641 540.125C757.095 540.125 757.322 540.579 757.322 541.487C757.322 542.395 757.095 542.849 756.641 542.849C751.193 542.849 747.031 543.303 744.156 544.211C741.432 545.119 739.616 546.708 738.708 548.978C737.8 551.248 737.346 554.577 737.346 558.966V663.613ZM829.061 663.613V558.512C829.061 554.123 828.607 550.87 827.699 548.751C826.791 546.481 824.899 544.968 822.024 544.211C819.3 543.303 815.214 542.849 809.766 542.849C809.463 542.849 809.312 542.395 809.312 541.487C809.312 540.579 809.463 540.125 809.766 540.125C813.398 540.125 817.484 540.276 822.024 540.579C826.564 540.73 831.331 540.806 836.325 540.806C841.773 540.806 846.691 540.73 851.08 540.579C855.62 540.276 859.63 540.125 863.111 540.125C863.565 540.125 863.792 540.579 863.792 541.487C863.792 542.395 863.565 542.849 863.111 542.849C857.663 542.849 853.577 543.303 850.853 544.211C848.129 545.119 846.237 546.708 845.178 548.978C844.27 551.248 843.816 554.577 843.816 558.966V663.613C843.816 668.002 844.27 671.331 845.178 673.601C846.086 675.871 847.902 677.384 850.626 678.141C853.501 678.898 857.663 679.276 863.111 679.276C863.565 679.276 863.792 679.73 863.792 680.638C863.792 681.546 863.565 682 863.111 682C859.479 682 855.468 681.924 851.08 681.773C846.691 681.622 841.773 681.546 836.325 681.546C831.331 681.546 826.488 681.622 821.797 681.773C817.257 681.924 813.171 682 809.539 682C809.236 682 809.085 681.546 809.085 680.638C809.085 679.73 809.236 679.276 809.539 679.276C814.987 679.276 819.148 678.898 822.024 678.141C824.899 677.384 826.791 675.871 827.699 673.601C828.607 671.331 829.061 668.002 829.061 663.613ZM886.038 649.085L849.945 603.685L861.295 594.605L894.437 636.827C901.247 645.756 906.997 652.944 911.689 658.392C916.531 663.84 920.542 668.077 923.72 671.104C926.898 673.979 929.697 676.022 932.119 677.233C934.691 678.292 937.113 678.898 939.383 679.049C941.653 679.2 944.225 679.276 947.101 679.276C947.555 679.276 947.782 679.73 947.782 680.638C947.782 681.546 947.555 682 947.101 682C940.291 682 934.843 682 930.757 682C926.671 682 923.644 682 921.677 682C920.315 682 919.18 682 918.272 682C917.515 682.151 916.683 682.227 915.775 682.227C913.656 682.227 911.916 681.849 910.554 681.092C909.343 680.335 907.905 678.822 906.241 676.552C904.576 674.282 902.155 670.953 898.977 666.564C895.95 662.175 891.637 656.349 886.038 649.085ZM833.828 616.851L892.394 558.512C897.993 552.761 900.339 548.751 899.431 546.481C898.674 544.06 894.361 542.849 886.492 542.849C886.189 542.849 886.038 542.395 886.038 541.487C886.038 540.579 886.189 540.125 886.492 540.125C890.275 540.125 894.058 540.276 897.842 540.579C901.625 540.73 906.619 540.806 912.824 540.806C918.726 540.806 923.417 540.73 926.898 540.579C930.378 540.276 933.708 540.125 936.886 540.125C937.34 540.125 937.567 540.579 937.567 541.487C937.567 542.395 937.34 542.849 936.886 542.849C931.438 542.849 925.157 544.135 918.045 546.708C910.932 549.129 904.122 553.518 897.615 559.874L839.503 616.851H833.828ZM1058.38 684.724C1047.49 684.724 1037.58 682.832 1028.65 679.049C1019.87 675.114 1012.3 669.742 1005.95 662.932C999.742 656.122 994.9 648.328 991.419 639.551C988.09 630.622 986.425 621.164 986.425 611.176C986.425 598.918 988.771 588.173 993.462 578.942C998.305 569.711 1004.66 562.068 1012.53 556.015C1020.4 549.81 1029.03 545.195 1038.41 542.168C1047.79 539.141 1057.1 537.628 1066.33 537.628C1077.53 537.628 1087.52 539.671 1096.29 543.757C1105.22 547.692 1112.79 553.064 1118.99 559.874C1125.2 566.684 1129.89 574.402 1133.07 583.028C1136.4 591.654 1138.06 600.507 1138.06 609.587C1138.06 620.18 1135.94 630.017 1131.7 639.097C1127.47 648.177 1121.64 656.122 1114.23 662.932C1106.96 669.742 1098.49 675.114 1088.8 679.049C1079.27 682.832 1069.13 684.724 1058.38 684.724ZM1066.33 679.957C1076.62 679.957 1085.85 677.536 1094.02 672.693C1102.19 667.699 1108.7 660.435 1113.54 650.901C1118.39 641.367 1120.81 629.714 1120.81 615.943C1120.81 601.718 1118.16 589.157 1112.86 578.261C1107.72 567.214 1100.3 558.588 1090.62 552.383C1081.08 546.027 1069.81 542.849 1056.79 542.849C1040 542.849 1026.91 548.297 1017.52 559.193C1008.29 569.938 1003.68 584.617 1003.68 603.231C1003.68 613.976 1005.11 624.039 1007.99 633.422C1011.02 642.653 1015.33 650.825 1020.93 657.938C1026.53 664.899 1033.19 670.347 1040.9 674.282C1048.62 678.065 1057.1 679.957 1066.33 679.957Z" fill="white"/>
<path d="M227.355 769.708C227.355 772.414 228.015 774.757 229.335 776.737C230.721 778.651 232.47 780.334 234.582 781.786C236.694 783.238 238.938 784.69 241.314 786.142C243.756 787.528 246.099 789.013 248.343 790.597C250.653 792.181 252.534 794.062 253.986 796.24C255.504 798.418 256.263 801.091 256.263 804.259C256.263 807.427 255.471 810.298 253.887 812.872C252.303 815.38 249.993 817.393 246.957 818.911C243.987 820.429 240.291 821.188 235.869 821.188C234.285 821.188 232.701 821.056 231.117 820.792C229.599 820.594 228.048 820.231 226.464 819.703C224.946 819.175 223.428 818.515 221.91 817.723C221.58 817.525 221.349 817.294 221.217 817.03C221.151 816.7 221.085 816.304 221.019 815.842L219.732 802.378C219.666 802.048 219.798 801.883 220.128 801.883C220.524 801.817 220.755 801.916 220.821 802.18C221.283 804.16 221.943 806.173 222.801 808.219C223.659 810.265 224.781 812.146 226.167 813.862C227.553 815.578 229.236 816.964 231.216 818.02C233.196 819.076 235.506 819.604 238.146 819.604C240.06 819.604 241.908 819.241 243.69 818.515C245.538 817.789 247.023 816.601 248.145 814.951C249.333 813.301 249.927 811.057 249.927 808.219C249.927 804.985 249.201 802.312 247.749 800.2C246.363 798.022 244.581 796.141 242.403 794.557C240.225 792.973 237.915 791.488 235.473 790.102C233.163 788.65 230.919 787.165 228.741 785.647C226.629 784.129 224.88 782.347 223.494 780.301C222.174 778.189 221.514 775.582 221.514 772.48C221.514 768.982 222.405 766.111 224.187 763.867C225.969 761.557 228.279 759.841 231.117 758.719C233.955 757.597 236.892 757.036 239.928 757.036C241.776 757.036 243.69 757.234 245.67 757.63C247.65 757.96 249.597 758.554 251.511 759.412C252.039 759.61 252.402 759.874 252.6 760.204C252.864 760.468 252.996 760.765 252.996 761.095L253.689 772.381C253.689 772.645 253.524 772.81 253.194 772.876C252.864 772.876 252.633 772.744 252.501 772.48C252.369 771.16 252.006 769.708 251.412 768.124C250.818 766.474 249.96 764.923 248.838 763.471C247.716 762.019 246.297 760.831 244.581 759.907C242.865 758.983 240.786 758.521 238.344 758.521C235.77 758.521 233.658 759.082 232.008 760.204C230.424 761.26 229.236 762.646 228.444 764.362C227.718 766.012 227.355 767.794 227.355 769.708ZM342.612 759.907C338.52 759.907 335.418 760.963 333.306 763.075C331.26 765.187 329.775 768.784 328.851 773.866C328.851 773.998 328.653 774.064 328.257 774.064C327.927 774.064 327.762 773.998 327.762 773.866C327.894 773.008 328.026 771.82 328.158 770.302C328.29 768.718 328.422 767.035 328.554 765.253C328.752 763.471 328.884 761.755 328.95 760.105C329.082 758.389 329.148 757.003 329.148 755.947C329.148 755.617 329.313 755.452 329.643 755.452C330.039 755.452 330.237 755.617 330.237 755.947C330.237 756.607 330.567 757.102 331.227 757.432C331.887 757.696 332.613 757.894 333.405 758.026C334.263 758.092 334.989 758.125 335.583 758.125C341.259 758.323 347.892 758.422 355.482 758.422C360.168 758.422 363.864 758.389 366.57 758.323C369.342 758.191 372.015 758.125 374.589 758.125C376.833 758.125 378.549 757.993 379.737 757.729C380.991 757.399 381.783 756.706 382.113 755.65C382.179 755.386 382.377 755.254 382.707 755.254C383.037 755.254 383.202 755.386 383.202 755.65C383.136 756.64 383.037 757.993 382.905 759.709C382.773 761.425 382.674 763.207 382.608 765.055C382.542 766.903 382.476 768.619 382.41 770.203C382.344 771.787 382.311 773.008 382.311 773.866C382.311 773.998 382.113 774.064 381.717 774.064C381.321 774.064 381.123 773.998 381.123 773.866C380.925 768.718 379.869 765.121 377.955 763.075C376.041 760.963 372.873 759.907 368.451 759.907C365.679 759.907 363.6 760.039 362.214 760.303C360.828 760.567 359.904 761.161 359.442 762.085C359.046 762.943 358.848 764.362 358.848 766.342V811.981C358.848 813.895 359.079 815.347 359.541 816.337C360.003 817.327 360.894 817.987 362.214 818.317C363.6 818.647 365.679 818.812 368.451 818.812C368.649 818.812 368.748 819.01 368.748 819.406C368.748 819.802 368.649 820 368.451 820C366.735 820 364.788 819.967 362.61 819.901C360.432 819.835 358.056 819.802 355.482 819.802C353.04 819.802 350.73 819.835 348.552 819.901C346.374 819.967 344.394 820 342.612 820C342.48 820 342.414 819.802 342.414 819.406C342.414 819.01 342.48 818.812 342.612 818.812C345.318 818.812 347.364 818.647 348.75 818.317C350.202 817.987 351.159 817.327 351.621 816.337C352.083 815.347 352.314 813.895 352.314 811.981V766.144C352.314 764.164 352.083 762.745 351.621 761.887C351.159 760.963 350.235 760.402 348.849 760.204C347.463 760.006 345.384 759.907 342.612 759.907ZM505.743 769.015C505.743 765.781 505.017 763.372 503.565 761.788C502.179 760.138 500.034 759.313 497.13 759.313C496.932 759.313 496.833 759.115 496.833 758.719C496.833 758.323 496.932 758.125 497.13 758.125C498.648 758.125 500.199 758.191 501.783 758.323C503.367 758.389 505.116 758.422 507.03 758.422C508.548 758.422 510.099 758.389 511.683 758.323C513.267 758.191 514.719 758.125 516.039 758.125C516.171 758.125 516.237 758.323 516.237 758.719C516.237 759.115 516.171 759.313 516.039 759.313C513.399 759.313 511.419 760.138 510.099 761.788C508.779 763.372 508.119 765.781 508.119 769.015V797.131C508.119 802.213 507.129 806.569 505.149 810.199C503.235 813.763 500.529 816.502 497.031 818.416C493.533 820.33 489.441 821.287 484.755 821.287C479.871 821.287 475.581 820.33 471.885 818.416C468.255 816.502 465.417 813.796 463.371 810.298C461.391 806.734 460.401 802.576 460.401 797.824V766.144C460.401 764.23 460.203 762.811 459.807 761.887C459.411 760.897 458.586 760.237 457.332 759.907C456.144 759.511 454.362 759.313 451.986 759.313C451.854 759.313 451.788 759.115 451.788 758.719C451.788 758.323 451.854 758.125 451.986 758.125C453.57 758.125 455.319 758.191 457.233 758.323C459.213 758.389 461.325 758.422 463.569 758.422C465.879 758.422 468.024 758.389 470.004 758.323C471.984 758.191 473.7 758.125 475.152 758.125C475.35 758.125 475.449 758.323 475.449 758.719C475.449 759.115 475.35 759.313 475.152 759.313C472.776 759.313 470.994 759.511 469.806 759.907C468.618 760.303 467.826 760.996 467.43 761.986C467.034 762.976 466.836 764.428 466.836 766.342V794.359C466.836 802.213 468.585 808.186 472.083 812.278C475.647 816.304 480.597 818.317 486.933 818.317C492.873 818.317 497.493 816.469 500.793 812.773C504.093 809.011 505.743 803.83 505.743 797.23V769.015ZM610.608 820.396C608.694 820.396 606.318 820.297 603.48 820.099C600.708 819.901 598.134 819.802 595.758 819.802C593.58 819.802 591.468 819.835 589.422 819.901C587.442 819.967 585.66 820 584.076 820C583.944 820 583.878 819.802 583.878 819.406C583.878 819.01 583.944 818.812 584.076 818.812C586.452 818.812 588.267 818.647 589.521 818.317C590.775 817.987 591.6 817.327 591.996 816.337C592.392 815.347 592.59 813.895 592.59 811.981V766.144C592.59 764.23 592.392 762.811 591.996 761.887C591.6 760.897 590.775 760.237 589.521 759.907C588.333 759.511 586.551 759.313 584.175 759.313C584.043 759.313 583.977 759.115 583.977 758.719C583.977 758.323 584.043 758.125 584.175 758.125C585.759 758.125 587.541 758.191 589.521 758.323C591.501 758.389 593.58 758.422 595.758 758.422C597.936 758.422 600.279 758.356 602.787 758.224C605.295 758.026 607.44 757.927 609.222 757.927C616.218 757.927 622.323 759.247 627.537 761.887C632.817 764.527 636.909 768.124 639.813 772.678C642.717 777.232 644.169 782.347 644.169 788.023C644.169 792.973 643.278 797.461 641.496 801.487C639.78 805.447 637.338 808.846 634.17 811.684C631.068 814.456 627.471 816.601 623.379 818.119C619.353 819.637 615.096 820.396 610.608 820.396ZM609.618 818.911C614.898 818.911 619.551 817.822 623.577 815.644C627.603 813.4 630.771 810.133 633.081 805.843C635.457 801.553 636.645 796.339 636.645 790.201C636.645 784.459 635.556 779.278 633.378 774.658C631.2 769.972 628.131 766.276 624.171 763.57C620.277 760.798 615.591 759.412 610.113 759.412C606.153 759.412 603.315 759.808 601.599 760.6C599.883 761.392 599.025 763.306 599.025 766.342V810.892C599.025 813.664 599.685 815.71 601.005 817.03C602.391 818.284 605.262 818.911 609.618 818.911ZM731.131 811.981C731.131 813.895 731.329 815.347 731.725 816.337C732.121 817.327 732.913 817.987 734.101 818.317C735.355 818.647 737.17 818.812 739.546 818.812C739.744 818.812 739.843 819.01 739.843 819.406C739.843 819.802 739.744 820 739.546 820C737.962 820 736.18 819.967 734.2 819.901C732.286 819.835 730.141 819.802 727.765 819.802C725.587 819.802 723.475 819.835 721.429 819.901C719.449 819.967 717.667 820 716.083 820C715.885 820 715.786 819.802 715.786 819.406C715.786 819.01 715.885 818.812 716.083 818.812C718.459 818.812 720.274 818.647 721.528 818.317C722.782 817.987 723.607 817.327 724.003 816.337C724.399 815.347 724.597 813.895 724.597 811.981V766.144C724.597 764.23 724.399 762.811 724.003 761.887C723.607 760.897 722.782 760.237 721.528 759.907C720.274 759.511 718.459 759.313 716.083 759.313C715.885 759.313 715.786 759.115 715.786 758.719C715.786 758.323 715.885 758.125 716.083 758.125C717.667 758.125 719.449 758.191 721.429 758.323C723.475 758.389 725.587 758.422 727.765 758.422C730.141 758.422 732.319 758.389 734.299 758.323C736.279 758.191 738.028 758.125 739.546 758.125C739.744 758.125 739.843 758.323 739.843 758.719C739.843 759.115 739.744 759.313 739.546 759.313C737.17 759.313 735.355 759.511 734.101 759.907C732.913 760.303 732.121 760.996 731.725 761.986C731.329 762.976 731.131 764.428 731.131 766.342V811.981ZM842.905 821.188C838.153 821.188 833.83 820.363 829.936 818.713C826.108 816.997 822.808 814.654 820.036 811.684C817.33 808.714 815.218 805.315 813.7 801.487C812.248 797.593 811.522 793.468 811.522 789.112C811.522 783.766 812.545 779.08 814.591 775.054C816.703 771.028 819.475 767.695 822.907 765.055C826.339 762.349 830.101 760.336 834.193 759.016C838.285 757.696 842.344 757.036 846.37 757.036C851.254 757.036 855.61 757.927 859.438 759.709C863.332 761.425 866.632 763.768 869.338 766.738C872.044 769.708 874.09 773.074 875.476 776.836C876.928 780.598 877.654 784.459 877.654 788.419C877.654 793.039 876.73 797.329 874.882 801.289C873.034 805.249 870.493 808.714 867.259 811.684C864.091 814.654 860.395 816.997 856.171 818.713C852.013 820.363 847.591 821.188 842.905 821.188ZM846.37 819.109C850.858 819.109 854.884 818.053 858.448 815.941C862.012 813.763 864.85 810.595 866.962 806.437C869.074 802.279 870.13 797.197 870.13 791.191C870.13 784.987 868.975 779.509 866.665 774.757C864.421 769.939 861.187 766.177 856.963 763.471C852.805 760.699 847.888 759.313 842.212 759.313C834.886 759.313 829.177 761.689 825.085 766.441C821.059 771.127 819.046 777.529 819.046 785.647C819.046 790.333 819.673 794.722 820.927 798.814C822.247 802.84 824.128 806.404 826.57 809.506C829.012 812.542 831.916 814.918 835.282 816.634C838.648 818.284 842.344 819.109 846.37 819.109Z" fill="white"/>
</svg>
