<svg width="574" height="474" viewBox="0 0 574 474" fill="none" xmlns="http://www.w3.org/2000/svg">
<path d="M106.5 2H121.5V126L143.5 161L151.5 154.5L159.5 146L166.5 137.5L171.5 130V2H187.5V130L185 137.5L178.5 146L171.5 155L163 163.5L154.5 171.5L151.5 173.5L200.5 252L219 232.5L246 202.069V2H262V190.5L411.5 380.5L455 400.5L491 416.5L494.5 418.5L497.5 421L499.5 424L501 427L502 430V443L501 446.5L499.5 449.5L497.5 452L494.5 456L493.5 457H514H562H571.5V472" stroke="#1A1A18" stroke-width="4" stroke-linecap="round" stroke-linejoin="round"/>
<path d="M571.5 472H386H276.5H211H157.5H83H2V457H55.5H289.5L279.5 449.5L264.5 437.5L250.5 424.5L235 409.5L218.5 393L204.5 380L198 374L191 368L183.5 362.5L177.5 358L172 354.5L164 349.5L154 344.5L145.5 341L137 337.5L126.5 333L116 329.5L102 323.5L94 320L87.5 317L78.5 311.5L71 305.5L64.5 299L59.5 293L53.5 284L49.5 276L48 267L47 262.5V244.5L48 239.5L49.5 234.5L52.5 226.5L59 216L63.5 208C66.5 203.833 72.6 195.4 73 195C73.5 194.5 79 187 79.5 186.5C79.9 186.1 82.6667 181.333 84 179L92 165L98.5 149.5C100 145.5 102.167 138.5 102.5 137.5C103 136 104 131.5 104.5 129C105.5 125.5 106.5 120.5 106.5 119.5C106.5 118.606 106.5 114.167 106.5 112V2" stroke="#1A1A18" stroke-width="4" stroke-linecap="round" stroke-linejoin="round"/>
<path d="M405 397L400 395L388 408.5L370 428.5L352.5 448L342.5 458H468L473.5 457L476.5 455L479.5 452.5L483.5 448.5L486 445.5L487.5 443L488 441V433L487.5 431L486 430L484 429L478.5 427L472.5 424.5L458 418.5L441 411.5L429.5 407L417 402L409.5 399L405 397Z" stroke="#1A1A18" stroke-width="4" stroke-linecap="round" stroke-linejoin="round"/>
<path d="M386.5 389V387.5L217 281.5L253.5 335.5L260.5 346.5L274.5 369L296 403.5L299.5 409L318.5 440.5L327 453L347 430.5L371.5 404.5L386.5 389Z" stroke="#1A1A18" stroke-width="4" stroke-linecap="round" stroke-linejoin="round"/>
<path d="M211.5 264.5L392 375L259 213L228.5 246L211.5 264.5Z" stroke="#1A1A18" stroke-width="4" stroke-linecap="round" stroke-linejoin="round"/>
<path d="M105 174L101.5 181L104.5 180L109.5 178L122.5 173.5L131 169.5L130.5 168.5L128.5 165.5L126.5 162.5L124.5 159L121.5 154.5L119 150L116 145L115 148.5L113 155.5L109 165.5L105 174Z" stroke="#1A1A18" stroke-width="4" stroke-linecap="round" stroke-linejoin="round"/>
<path d="M163.796 330.04L188.5 269L190 265V263L188.5 260L179 245.5L162 219.138L138.5 181H136.85L134.854 181.502L130.862 183.007L95.9326 195.553L90.4437 198.062L86.9507 201.575C86.5515 201.976 82.1271 207.764 79.9648 210.607L73.9769 219.138L68.4879 229.175L65.993 235.698L63.997 240.716L62.5 246.738V253.764V262.295L63.498 266.811C63.997 268.149 64.995 270.926 64.995 271.327C64.995 271.729 66.3256 275.509 66.9909 277.349L70.9829 284.375L74.4759 288.389L79.4658 293.909L85 299.429L89.9447 302.44L96.4316 305.953L102.42 308.462L116.391 313.982L139.844 323.015L155.812 330.04L162.299 333.553L163.796 330.04Z" stroke="#1A1A18" stroke-width="4" stroke-linejoin="round"/>
<path d="M257.607 370.185L214.5 299.429L200.5 278L175.772 337.567L175.273 340.076L179.764 343.589L190.242 350.113L203.715 360.149L218.186 374.2L236.649 392.265L255.112 410.833L269.582 423.88L285.051 436.425L297.027 445.458L310.5 457L306.009 448.971L257.607 370.185Z" stroke="#1A1A18" stroke-width="4" stroke-linejoin="round"/>
</svg>
